<svg xmlns="http://www.w3.org/2000/svg" viewBox="0 0 1920 1080">
  <defs>
    <linearGradient id="bg4" x1="0%" y1="100%" x2="100%" y2="0%">
      <stop offset="0%" style="stop-color:#1e293b"/>
      <stop offset="50%" style="stop-color:#0f172a"/>
      <stop offset="100%" style="stop-color:#1e293b"/>
    </linearGradient>
    <linearGradient id="accent4" x1="0%" y1="0%" x2="100%" y2="100%">
      <stop offset="0%" style="stop-color:#f97316;stop-opacity:0.3"/>
      <stop offset="100%" style="stop-color:#ea580c;stop-opacity:0"/>
    </linearGradient>
    <radialGradient id="glow4" cx="50%" cy="50%" r="50%">
      <stop offset="0%" style="stop-color:#f97316;stop-opacity:0.4"/>
      <stop offset="100%" style="stop-color:#f97316;stop-opacity:0"/>
    </radialGradient>
  </defs>
  <rect width="1920" height="1080" fill="url(#bg4)"/>
  <ellipse cx="400" cy="400" rx="500" ry="450" fill="url(#accent4)"/>
  <ellipse cx="1600" cy="700" rx="450" ry="400" fill="url(#accent4)" opacity="0.6"/>
  <circle cx="960" cy="540" r="200" fill="url(#glow4)"/>
  <!-- Shipping/Delivery illustration -->
  <g transform="translate(1100, 300)">
    <!-- Box -->
    <rect x="0" y="100" width="400" height="300" rx="20" fill="#334155" stroke="#f97316" stroke-width="2"/>
    <rect x="50" y="150" width="120" height="80" rx="10" fill="#f97316" opacity="0.5"/>
    <rect x="200" y="150" width="150" height="80" rx="10" fill="#f97316" opacity="0.4"/>
    <rect x="50" y="260" width="300" height="20" rx="10" fill="#f97316" opacity="0.3"/>
    <rect x="50" y="300" width="250" height="20" rx="10" fill="#f97316" opacity="0.2"/>
    <!-- Checkmark -->
    <circle cx="350" cy="80" r="40" fill="#22c55e" opacity="0.8"/>
    <path d="M330 80 L345 95 L375 65" stroke="white" stroke-width="6" fill="none" stroke-linecap="round" stroke-linejoin="round"/>
  </g>
</svg>
