<svg xmlns="http://www.w3.org/2000/svg" viewBox="0 0 800 600" role="img" aria-label="Ilustrasi Lanyard 2.5 cm">
  <defs>
    <linearGradient id="bg" x1="0" y1="0" x2="1" y2="1">
      <stop offset="0" stop-color="#F9FAFB"/>
      <stop offset="1" stop-color="#FFFFFF"/>
    </linearGradient>
    <linearGradient id="strap" x1="0" y1="0" x2="0" y2="1">
      <stop offset="0" stop-color="#FDBA74"/>
      <stop offset="1" stop-color="#F97316"/>
    </linearGradient>
  </defs>
  <rect width="800" height="600" rx="32" fill="url(#bg)"/>
  <circle cx="660" cy="120" r="110" fill="#F97316" opacity="0.08"/>
  <circle cx="140" cy="510" r="160" fill="#111827" opacity="0.04"/>

  <!-- Strap (widest) -->
  <path d="M284 80c0-18 14-32 32-32h168c18 0 32 14 32 32v172c0 44-28 82-72 98l-52 20c-26 10-44 35-44 63v64c0 18-14 32-32 32s-32-14-32-32v-64c0-62 39-118 98-140l52-20c16-6 26-20 26-36V80c0-6-4-10-10-10H316c-6 0-10 4-10 10v216c0 16 10 30 26 36l52 20c59 22 98 78 98 140v26c0 18-14 32-32 32s-32-14-32-32v-26c0-28-18-53-44-63l-52-20c-44-16-72-54-72-98V80z" fill="url(#strap)"/>

  <path d="M400 72v340" stroke="#FFFFFF" stroke-opacity="0.32" stroke-width="6" stroke-linecap="round" stroke-dasharray="2 14"/>

  <!-- Hook -->
  <g transform="translate(380 420)">
    <rect x="-78" y="0" width="156" height="32" rx="16" fill="#111827" opacity="0.18"/>
    <path d="M0 22c44 0 72 30 72 66v34c0 34-28 62-62 62s-62-28-62-62V88c0-62 50-112 112-112h10" fill="none" stroke="#111827" stroke-opacity="0.55" stroke-width="18" stroke-linecap="round"/>
    <path d="M96-4H56" stroke="#111827" stroke-opacity="0.55" stroke-width="18" stroke-linecap="round"/>
  </g>

  <g font-family="ui-sans-serif, system-ui" fill="#111827">
    <text x="48" y="78" font-size="28" font-weight="700">Lanyard 2.5 cm</text>
    <text x="48" y="112" font-size="16" opacity="0.7">Ilustrasi produk (placeholder)</text>
  </g>
</svg>
